{"title":"Motherhood_DVDRIP_AC3_XVID_-_IMAGiNE","uid":5321933,"size":1479807152,"categoryP":"video","categoryS":"movies","magnet":"?xt=urn:btih:36f6362cf4464b1e2942442e433c19f29cbc9627&amp;dn=Motherhood_DVDRIP_AC3_XVID_-_IMAGiNE&amp;tr=udp%3A%2F%2Ftracker.openbittorrent.com%3A80&amp;tr=udp%3A%2F%2Fopen.demonii.com%3A1337&amp;tr=udp%3A%2F%2Ftracker.coppersurfer.tk%3A6969&amp;tr=udp%3A%2F%2Fexodus.desync.com%3A6969","seeders":0,"leechers":0,"uploader":"IwannaFan2","files":2,"time":1264887332,"description":"Filename:\nMotherhood_DVDRIP_AC3_XVID_-_IMAGiNE\n\nRipper ...........: IMAGiNE                                        IMDB Rating.......:5.8/10                            \nVideo Codec.......: XVID                                         Release Date......:30/01/10\nAudio Codec.......:AC3                                           Theatre Date......:23/10/09\nAudio Bitrate.....:448                                              Runtime.......:1h 29mn\nSubtitles.........:NIL                                                 Language..........:ENGLISH\nResolution...... 704 x 384                                      IMDb URL..........:http://www.imdb.com/title/tt1220220/\n\n\nDETAILS:\n\nVideo\nID                               : 0\nFormat                           : MPEG-4 Visual\nFormat profile                   : Advanced Simple@L5\nFormat settings, BVOP            : Yes\nFormat settings, QPel            : No\nFormat settings, GMC             : No warppoints\nFormat settings, Matrix          : Default (H.263)\nMuxing mode                      : Packed bitstream\nCodec ID                         : XVID\nCodec ID/Hint                    : XviD\nDuration                         : 1h 29mn\nBit rate                         : 1 720 Kbps\nWidth                            : 704 pixels\nHeight                           : 384 pixels\nDisplay aspect ratio             : 16/9\nFrame rate                       : 23.976 fps\nResolution                       : 24 bits\nColorimetry                      : 4:2:0\nScan type                        : Progressive\nBits/(Pixel*Frame)               : 0.265\nStream size                      : 1.07 GiB (79%)\nWriting library                  : XviD 1.2.1 (UTC 2008-12-04)\n\nAudio\nID                               : 1\nFormat                           : AC-3\nFormat/Info                      : Audio Coding 3\nCodec ID                         : 2000\nDuration                         : 1h 29mn\nBit rate mode                    : Constant\nBit rate                         : 448 Kbps\nChannel(s)                       : 6 channels\nChannel positions                : Front: L C R, Surround: L R, LFE\nSampling rate                    : 48.0 KHz\nStream size                      : 286 MiB (21%)\nAlignment                        : Aligned on interleaves\nInterleave, duration             : 42 ms (1.00 video frame)\nInterleave, preload duration     : 512 ms","torrent":{"xt":"urn:btih:36f6362cf4464b1e2942442e433c19f29cbc9627","amp;dn":"Motherhood_DVDRIP_AC3_XVID_-_IMAGiNE","amp;tr":["udp%3A%2F%2Ftracker.openbittorrent.com%3A80","udp%3A%2F%2Fopen.demonii.com%3A1337","udp%3A%2F%2Ftracker.coppersurfer.tk%3A6969","udp%3A%2F%2Fexodus.desync.com%3A6969"],"infoHash":"36f6362cf4464b1e2942442e433c19f29cbc9627","infoHashBuffer":{"type":"Buffer","data":[54,246,54,44,244,70,75,30,41,66,68,46,67,60,25,242,156,188,150,39]},"announce":[],"urlList":[]}}